<svg width="56" height="57" viewBox="0 0 56 57" fill="none" xmlns="http://www.w3.org/2000/svg">
<rect y="0.5" width="56" height="56" rx="28" fill="#E5E7EB"/>
<g clip-path="url(#clip0_2958_1230)">
<rect width="24" height="24" transform="translate(16 16.5)" fill="#E5E7EB"/>
<path fill-rule="evenodd" clip-rule="evenodd" d="M24.6633 18.5086C26.0227 18.4585 27.3759 18.7172 28.621 19.2654C29.8661 19.8135 30.9707 20.6368 31.8518 21.6733C32.5633 22.5102 33.1141 23.4686 33.479 24.5H34C35.333 24.5009 36.6284 24.9457 37.6806 25.7642C38.7328 26.5826 39.4825 27.7282 39.8113 29.02C40.1401 30.3119 40.0293 31.6765 39.4965 32.8984C38.9636 34.1203 38.039 35.1299 36.8686 35.768C36.3837 36.0324 35.7763 35.8536 35.512 35.3687C35.2476 34.8838 35.4264 34.2764 35.9113 34.012C36.6916 33.5866 37.308 32.9135 37.6632 32.0989C38.0184 31.2843 38.0923 30.3746 37.8731 29.5134C37.6539 28.6521 37.1541 27.8884 36.4526 27.3428C35.7512 26.7971 34.888 26.5006 33.9993 26.5H32.74C32.2841 26.5 31.8859 26.1917 31.7718 25.7503C31.5069 24.7259 31.0133 23.7749 30.328 22.9687C29.6427 22.1625 28.7835 21.5222 27.8151 21.0959C26.8467 20.6695 25.7943 20.4683 24.7369 20.5072C23.6795 20.5462 22.6447 20.8243 21.7103 21.3208C20.7759 21.8172 19.9662 22.519 19.3421 23.3735C18.718 24.2279 18.2956 25.2127 18.1069 26.2538C17.9182 27.2949 17.9679 28.3653 18.2524 29.3844C18.5368 30.4036 19.0486 31.345 19.7493 32.1378C20.115 32.5517 20.076 33.1836 19.6622 33.5493C19.2483 33.9151 18.6163 33.8761 18.2506 33.4622C17.3498 32.4428 16.6917 31.2324 16.326 29.9221C15.9602 28.6118 15.8963 27.2356 16.139 25.897C16.3817 24.5584 16.9246 23.2923 17.7271 22.1937C18.5295 21.0952 19.5706 20.1929 20.772 19.5546C21.9733 18.9163 23.3038 18.5587 24.6633 18.5086ZM27.2929 27.7929C27.6834 27.4024 28.3165 27.4024 28.7071 27.7929L32.7071 31.7929C33.0976 32.1834 33.0976 32.8166 32.7071 33.2071C32.3165 33.5976 31.6834 33.5976 31.2929 33.2071L29 30.9142V37.5C29 38.0523 28.5522 38.5 28 38.5C27.4477 38.5 27 38.0523 27 37.5V30.9142L24.7071 33.2071C24.3165 33.5976 23.6834 33.5976 23.2929 33.2071C22.9023 32.8166 22.9023 32.1834 23.2929 31.7929L27.2929 27.7929Z" fill="#202020" fill-opacity="0.8"/>
</g>
<defs>
<clipPath id="clip0_2958_1230">
<rect width="24" height="24" fill="white" transform="translate(16 16.5)"/>
</clipPath>
</defs>
</svg>
